name C:\Users\u0101727\Documents\MyRepositories\upper-imu-dc\Results\main_tracking\Case_32\ABD01_angularVelocities_groundFrame.mot
datacolumns 4
datarows 94
range 2.81000000 3.74000000
endheader 
time	radius_imu_x	radius_imu_y	radius_imu_z	
          2.81000000	          0.24214950	         -0.60141852	          0.05892245	
          2.82000000	          0.17756793	         -0.59663033	          0.06409241	
          2.83000000	          0.13854160	         -0.56666515	          0.06526267	
          2.84000000	          0.11561044	         -0.51060995	          0.06148668	
          2.85000000	          0.10201991	         -0.43060220	          0.05252563	
          2.86000000	          0.09383556	         -0.33529865	          0.03989057	
          2.87000000	          0.08924207	         -0.23778678	          0.02624430	
          2.88000000	          0.08788767	         -0.15327204	          0.01479607	
          2.89000000	          0.09021753	         -0.09621073	          0.00857788	
          2.90000000	          0.09680468	         -0.07716032	          0.00970441	
          2.91000000	          0.10772594	         -0.09976738	          0.01872177	
          2.92000000	          0.12212268	         -0.15891563	          0.03425695	
          2.93000000	          0.13814219	         -0.24143170	          0.05323831	
          2.94000000	          0.15335889	         -0.33000290	          0.07179316	
          2.95000000	          0.16546563	         -0.40870368	          0.08645891	
          2.96000000	          0.17277766	         -0.46678538	          0.09499757	
          2.97000000	          0.17427965	         -0.49886337	          0.09644357	
          2.98000000	          0.16943048	         -0.50320949	          0.09076326	
          2.99000000	          0.15810774	         -0.48101591	          0.07870947	
          3.00000000	          0.14073122	         -0.43696856	          0.06190561	
          3.01000000	          0.11830674	         -0.37933332	          0.04277565	
          3.02000000	          0.09224765	         -0.31860794	          0.02415464	
          3.03000000	          0.06406889	         -0.26544178	          0.00877555	
          3.04000000	          0.03510757	         -0.22885376	         -0.00112707	
          3.05000000	          0.00635167	         -0.21519050	         -0.00402102	
          3.06000000	         -0.02162993	         -0.22767284	          0.00085333	
          3.07000000	         -0.04870814	         -0.26618047	          0.01346432	
          3.08000000	         -0.07519285	         -0.32717083	          0.03299197	
          3.09000000	         -0.10177818	         -0.40404573	          0.05789617	
          3.10000000	         -0.12937694	         -0.48838450	          0.08612640	
          3.11000000	         -0.15884874	         -0.57196537	          0.11548104	
          3.12000000	         -0.19071248	         -0.64883459	          0.14400603	
          3.13000000	         -0.22495153	         -0.71657208	          0.17028554	
          3.14000000	         -0.26096629	         -0.77637552	          0.19355013	
          3.15000000	         -0.29767099	         -0.83212571	          0.21362435	
          3.16000000	         -0.33370038	         -0.88886366	          0.23077892	
          3.17000000	         -0.36767450	         -0.95113034	          0.24553938	
          3.18000000	         -0.39846073	         -1.02156098	          0.25848753	
          3.19000000	         -0.42537454	         -1.10005690	          0.27010313	
          3.20000000	         -0.44827769	         -1.18370573	          0.28068745	
          3.21000000	         -0.46756105	         -1.26735040	          0.29034957	
          3.22000000	         -0.48402928	         -1.34450783	          0.29898826	
          3.23000000	         -0.49872076	         -1.40840377	          0.30625410	
          3.24000000	         -0.51270328	         -1.45305266	          0.31156956	
          3.25000000	         -0.52689676	         -1.47425246	          0.31427336	
          3.26000000	         -0.54197530	         -1.47016293	          0.31382942	
          3.27000000	         -0.55836908	         -1.44120729	          0.30997007	
          3.28000000	         -0.57632859	         -1.38948278	          0.30273525	
          3.29000000	         -0.59598036	         -1.31820144	          0.29249250	
          3.30000000	         -0.61733154	         -1.23147280	          0.28000275	
          3.31000000	         -0.64024023	         -1.13426255	          0.26648570	
          3.32000000	         -0.66439412	         -1.03218905	          0.25359474	
          3.33000000	         -0.68932132	         -0.93104888	          0.24327677	
          3.34000000	         -0.71443266	         -0.83620785	          0.23754900	
          3.35000000	         -0.73909021	         -0.75202826	          0.23824040	
          3.36000000	         -0.76270108	         -0.68138442	          0.24673362	
          3.37000000	         -0.78483354	         -0.62523631	          0.26374473	
          3.38000000	         -0.80533446	         -0.58230410	          0.28921225	
          3.39000000	         -0.82439531	         -0.54902338	          0.32235428	
          3.40000000	         -0.84249917	         -0.51995054	          0.36184521	
          3.41000000	         -0.86023277	         -0.48858026	          0.40596739	
          3.42000000	         -0.87804515	         -0.44835742	          0.45265825	
          3.43000000	         -0.89607730	         -0.39364199	          0.49950615	
          3.44000000	         -0.91413081	         -0.32046455	          0.54379926	
          3.45000000	         -0.93175532	         -0.22703710	          0.58272123	
          3.46000000	         -0.94839074	         -0.11404834	          0.61372368	
          3.47000000	         -0.96350499	          0.01527870	          0.63497644	
          3.48000000	         -0.97669026	          0.15544175	          0.64569581	
          3.49000000	         -0.98770162	          0.29927550	          0.64616052	
          3.50000000	         -0.99643682	          0.43889377	          0.63733067	
          3.51000000	         -1.00286671	          0.56677632	          0.62017556	
          3.52000000	         -1.00693709	          0.67665064	          0.59504025	
          3.53000000	         -1.00848041	          0.76379388	          0.56145310	
          3.54000000	         -1.00717486	          0.82408701	          0.51909150	
          3.55000000	         -1.00254340	          0.85300283	          0.46886878	
          3.56000000	         -0.99396458	          0.84434797	          0.41436097	
          3.57000000	         -0.98145748	          0.79642471	          0.35659911	
          3.58000000	         -0.96519651	          0.71546368	          0.29217299	
          3.59000000	         -0.94497776	          0.60487568	          0.22077286	
          3.60000000	         -0.92043578	          0.46026336	          0.14945465	
          3.61000000	         -0.89117881	          0.27736727	          0.08787955	
          3.62000000	         -0.85788574	          0.07146313	          0.02973335	
          3.63000000	         -0.82372357	         -0.12039900	         -0.05517645	
          3.64000000	         -0.78689598	         -0.38494489	         -0.06828460	
          3.65000000	         -0.75429109	         -0.69631234	         -0.02908929	
          3.66000000	         -0.72878604	         -0.98563121	          0.00515042	
          3.67000000	         -0.71186676	         -1.26920779	          0.05891604	
          3.68000000	         -0.70421896	         -1.52423680	          0.11259566	
          3.69000000	         -0.70545158	         -1.74618895	          0.16380591	
          3.70000000	         -0.71470751	         -1.93121697	          0.20962176	
          3.71000000	         -0.73056097	         -2.07667028	          0.24675628	
          3.72000000	         -0.75133610	         -2.18397652	          0.27496867	
          3.73000000	         -0.77533481	         -2.25731358	          0.29608420	
          3.74000000	         -0.80102686	         -2.30221982	          0.31293507	
